<svg xmlns="http://www.w3.org/2000/svg" viewBox="0 0 390 844" width="390" height="844">
  <defs>
    <linearGradient id="bodyGrad" x1="0%" y1="0%" x2="100%" y2="100%">
      <stop offset="0%" style="stop-color:#2a2a2a"/>
      <stop offset="40%" style="stop-color:#1a1a1a"/>
      <stop offset="100%" style="stop-color:#0d0d0d"/>
    </linearGradient>
    <linearGradient id="sideGrad" x1="0%" y1="0%" x2="100%" y2="0%">
      <stop offset="0%" style="stop-color:#3a3a3a"/>
      <stop offset="50%" style="stop-color:#555"/>
      <stop offset="100%" style="stop-color:#2a2a2a"/>
    </linearGradient>
    <linearGradient id="screenGrad" x1="0%" y1="0%" x2="0%" y2="100%">
      <stop offset="0%" style="stop-color:#1a1a2e"/>
      <stop offset="100%" style="stop-color:#000010"/>
    </linearGradient>
    <linearGradient id="highlightGrad" x1="0%" y1="0%" x2="100%" y2="100%">
      <stop offset="0%" style="stop-color:rgba(255,255,255,0.15)"/>
      <stop offset="100%" style="stop-color:rgba(255,255,255,0)"/>
    </linearGradient>
    <clipPath id="screenClip">
      <rect x="20" y="20" width="350" height="804" rx="44" ry="44"/>
    </clipPath>
    <filter id="shadow">
      <feDropShadow dx="0" dy="20" stdDeviation="30" flood-color="rgba(0,0,0,0.6)"/>
    </filter>
  </defs>

  <!-- Corps principal -->
  <rect x="0" y="0" width="390" height="844" rx="54" ry="54" fill="url(#bodyGrad)" filter="url(#shadow)"/>

  <!-- Bords métalliques -->
  <rect x="1" y="1" width="388" height="842" rx="53" ry="53" fill="none" stroke="url(#sideGrad)" stroke-width="2"/>

  <!-- Écran -->
  <rect x="20" y="20" width="350" height="804" rx="44" ry="44" fill="#000"/>

  <!-- Dynamic Island -->
  <rect x="155" y="32" width="80" height="28" rx="14" ry="14" fill="#000"/>

  <!-- Highlight haut gauche -->
  <path d="M 54 0 Q 0 0 0 54 L 0 200 Q 60 160 80 0 Z" fill="url(#highlightGrad)" opacity="0.4"/>

  <!-- Reflet droite -->
  <path d="M 390 54 Q 390 0 336 0 L 310 0 Q 330 80 390 200 Z" fill="rgba(255,255,255,0.04)"/>
</svg>